<?xml version="1.0" encoding="UTF-8" standalone="no"?>
<!-- Generator: Adobe Illustrator 17.1.0, SVG Export Plug-In . SVG Version: 6.00 Build 0)  -->

<svg
   xmlns:dc="http://purl.org/dc/elements/1.1/"
   xmlns:cc="http://creativecommons.org/ns#"
   xmlns:rdf="http://www.w3.org/1999/02/22-rdf-syntax-ns#"
   xmlns:svg="http://www.w3.org/2000/svg"
   xmlns="http://www.w3.org/2000/svg"
   xmlns:sodipodi="http://sodipodi.sourceforge.net/DTD/sodipodi-0.dtd"
   xmlns:inkscape="http://www.inkscape.org/namespaces/inkscape"
   version="1.1"
   id="Capa_1"
   x="0px"
   y="0px"
   viewBox="0 0 442 442"
   style="enable-background:new 0 0 442 442;"
   xml:space="preserve"
   sodipodi:docname="cartridge2.svg"
   inkscape:version="0.92.2 (5c3e80d, 2017-08-06)"><metadata
     id="metadata51"><rdf:RDF><cc:Work
         rdf:about=""><dc:format>image/svg+xml</dc:format><dc:type
           rdf:resource="http://purl.org/dc/dcmitype/StillImage" /><dc:title></dc:title></cc:Work></rdf:RDF></metadata><defs
     id="defs49" /><sodipodi:namedview
     pagecolor="#ffffff"
     bordercolor="#666666"
     borderopacity="1"
     objecttolerance="10"
     gridtolerance="10"
     guidetolerance="10"
     inkscape:pageopacity="0"
     inkscape:pageshadow="2"
     inkscape:window-width="1280"
     inkscape:window-height="975"
     id="namedview47"
     showgrid="false"
     inkscape:zoom="0.53393665"
     inkscape:cx="221"
     inkscape:cy="221"
     inkscape:window-x="-4"
     inkscape:window-y="-4"
     inkscape:window-maximized="1"
     inkscape:current-layer="Capa_1" /><g
     id="g16" /><g
     id="g18" /><g
     id="g20" /><g
     id="g22" /><g
     id="g24" /><g
     id="g26" /><g
     id="g28" /><g
     id="g30" /><g
     id="g32" /><g
     id="g34" /><g
     id="g36" /><g
     id="g38" /><g
     id="g40" /><g
     id="g42" /><g
     id="g44" /><g
     id="g8"
     style="fill:#7f7f7f;fill-opacity:1;stroke:#7f7f7f;stroke-width:10.58267689;stroke-miterlimit:4;stroke-dasharray:none;stroke-opacity:1"
     transform="matrix(0.67325741,0,0,0.66683202,12.016048,28.325988)"><g
       id="g6"
       style="fill:#7f7f7f;fill-opacity:1;stroke:#7f7f7f;stroke-width:10.58267689;stroke-miterlimit:4;stroke-dasharray:none;stroke-opacity:1"><path
         inkscape:connector-curvature="0"
         d="M 608.948,98.633 H 3.052 C 1.367,98.633 0,100 0,101.685 v 352.27 c 0,1.685 1.367,3.052 3.052,3.052 h 39.216 v 53.31 c 0,1.685 1.367,3.052 3.052,3.052 h 521.354 c 1.685,0 3.052,-1.367 3.052,-3.052 v -53.31 h 39.223 c 1.685,0 3.052,-1.367 3.052,-3.052 V 101.685 C 612,100 610.633,98.633 608.948,98.633 Z m -3.052,6.103 v 22.077 H 6.104 v -22.077 z m 0,28.187 V 155 H 6.104 v -22.077 z m -39.222,317.978 c -1.685,0 -3.052,1.367 -3.052,3.053 v 53.31 H 48.372 v -53.31 c 0,-1.686 -1.368,-3.053 -3.052,-3.053 H 6.104 V 161.104 h 599.793 v 289.797 z"
         id="path2"
         style="fill:#7f7f7f;fill-opacity:1;stroke:#7f7f7f;stroke-width:10.58267689;stroke-miterlimit:4;stroke-dasharray:none;stroke-opacity:1" /><path
         inkscape:connector-curvature="0"
         d="M 568.56,183.181 H 43.44 c -8.411,0 -15.259,6.842 -15.259,15.259 v 215.125 c 0,8.417 6.849,15.259 15.259,15.259 h 525.12 c 8.411,0 15.26,-6.842 15.26,-15.259 V 198.44 c -0.001,-8.417 -6.849,-15.259 -15.26,-15.259 z m 9.156,15.259 V 309.991 H 456.881 c 0.036,-1.33 0.122,-2.654 0.122,-3.991 0,-45.137 -20.563,-88.119 -55.428,-116.715 H 568.56 c 5.047,0 9.156,4.108 9.156,9.155 z M 450.898,306 c 0,45.882 -22.168,89.432 -59.321,116.721 H 220.423 C 183.27,395.432 161.101,351.882 161.101,306 c 0,-45.882 22.168,-89.425 59.322,-116.715 h 171.154 c 37.153,27.29 59.321,70.833 59.321,116.715 z M 43.44,189.285 h 166.991 c -34.864,28.602 -55.434,71.578 -55.434,116.715 0,1.337 0.085,2.661 0.122,3.991 H 34.285 V 198.44 c 0,-5.047 4.107,-9.155 9.155,-9.155 z m -9.155,224.28 v -97.47 H 155.37 c 2.82,41.396 22.804,80.166 55.062,106.625 H 43.44 c -5.048,10e-4 -9.155,-4.107 -9.155,-9.155 z m 534.275,9.156 H 401.568 c 32.252,-26.459 52.242,-65.23 55.062,-106.625 h 121.086 v 97.47 c 0,5.047 -4.109,9.155 -9.156,9.155 z"
         id="path4"
         style="fill:#7f7f7f;fill-opacity:1;stroke:#7f7f7f;stroke-width:10.58267689;stroke-miterlimit:4;stroke-dasharray:none;stroke-opacity:1" /></g></g><path
     style="fill:#7f7f7f;fill-opacity:1;stroke:#7f7f7f;stroke-width:0.46135554;stroke-opacity:1"
     d="m 181.21574,295.05357 c -2.1535,-1.09662 -3.40712,-3.17402 -3.63598,-6.02527 -0.227,-2.82811 0.60314,-5.09417 3.82038,-10.4285 1.76401,-2.92479 2.23059,-3.39983 3.33926,-3.39983 1.09655,0 1.57553,0.46916 3.2119,3.14609 4.25477,6.96038 5.07279,11.22677 2.78815,14.54168 -1.91254,2.77497 -6.34707,3.78345 -9.52371,2.16583 z m 5.87929,-4.2167 c 1.22616,-1.14647 1.02071,-3.39963 -0.60737,-6.66112 -0.79058,-1.58374 -1.56044,-2.87953 -1.7108,-2.87953 -0.58811,0 -3.26913,5.70544 -3.30571,7.03484 -0.0213,0.77492 0.33036,1.83038 0.78153,2.34544 1.01728,1.16136 3.67755,1.24947 4.84235,0.16037 z m -9.29734,-17.81548 c -0.17166,-0.17735 -0.3121,-18.74138 -0.3121,-41.2534 v -40.93096 l -2.60987,-0.14063 -2.60987,-0.14064 -1.90892,-5.62732 c -1.10145,-3.24695 -1.86944,-6.32159 -1.81557,-7.26862 l 0.0934,-1.64131 h 54.23995 54.23996 l 0.12566,1.17237 c 0.0691,0.64479 -0.76503,3.91566 -1.85365,7.26862 l -1.9793,6.09626 -2.56823,0.14053 -2.56823,0.14053 -0.11703,27.99604 -0.11704,27.99607 -28.01817,0.1208 -28.01818,0.12081 -0.12306,9.25804 -0.12305,9.25806 -8.03766,0.12797 -8.03766,0.12799 -0.13238,3.62356 -0.13237,3.62356 -8.65225,0.12705 c -4.75874,0.0699 -8.7927,-0.0181 -8.96434,-0.19538 z m 14.30679,-7.08305 0.13256,-3.6343 8.05657,-0.12806 8.05656,-0.12805 v -2.79202 -2.79202 l -8.05656,-0.12805 -8.05657,-0.12807 v -1.6413 -1.6413 l 8.05657,-0.12805 8.05656,-0.12806 v -2.79201 -2.79202 l -8.05656,-0.12806 -8.05657,-0.12804 v -1.64131 -1.6413 l 36.1978,-0.12005 36.1978,-0.12004 V 224.55132 205.7964 h -41.75797 -41.75795 v 31.88813 31.88813 h 5.4276 5.42759 z m 36.40481,-27.0174 c -0.14284,-0.3846 -0.1925,-1.18942 -0.11035,-1.78849 0.1238,-0.90281 0.42126,-1.08922 1.73799,-1.08922 1.51297,0 1.58861,0.0781 1.58861,1.6413 0,1.50968 -0.11854,1.6531 -1.47827,1.78848 -0.99132,0.0987 -1.56381,-0.0831 -1.73798,-0.55207 z m 7.26226,0 c -0.14285,-0.3846 -0.1925,-1.18942 -0.11036,-1.78849 0.12381,-0.90281 0.42127,-1.08922 1.738,-1.08922 1.51296,0 1.58862,0.0781 1.58862,1.6413 0,1.50968 -0.11856,1.6531 -1.47828,1.78848 -0.99132,0.0987 -1.56382,-0.0831 -1.73798,-0.55207 z m 7.26225,0 c -0.14284,-0.3846 -0.1925,-1.18942 -0.11034,-1.78849 0.1238,-0.90281 0.42125,-1.08922 1.73798,-1.08922 1.51296,0 1.58862,0.0781 1.58862,1.6413 0,1.50968 -0.11855,1.6531 -1.47827,1.78848 -0.99133,0.0987 -1.56381,-0.0831 -1.73799,-0.55207 z m 7.26226,0 c -0.14285,-0.3846 -0.1925,-1.18942 -0.11036,-1.78849 0.12381,-0.90281 0.42126,-1.08922 1.73799,-1.08922 1.51297,0 1.58862,0.0781 1.58862,1.6413 0,1.50968 -0.11855,1.6531 -1.47828,1.78848 -0.99132,0.0987 -1.5638,-0.0831 -1.73797,-0.55207 z m 7.26225,0 c -0.14285,-0.3846 -0.1925,-1.18942 -0.11035,-1.78849 0.1238,-0.90281 0.42126,-1.08922 1.73799,-1.08922 1.51297,0 1.58861,0.0781 1.58861,1.6413 0,1.50968 -0.11855,1.6531 -1.47827,1.78848 -0.99132,0.0987 -1.56381,-0.0831 -1.73798,-0.55207 z m -21.78676,-7.50309 c -0.14285,-0.38458 -0.1925,-1.1894 -0.11036,-1.78849 0.12381,-0.90279 0.42127,-1.08922 1.738,-1.08922 1.51296,0 1.58862,0.0781 1.58862,1.64131 0,1.50967 -0.11856,1.65309 -1.47828,1.78847 -0.99132,0.0987 -1.56382,-0.0831 -1.73798,-0.55207 z m 7.26225,0 c -0.14284,-0.38458 -0.1925,-1.1894 -0.11034,-1.78849 0.1238,-0.90279 0.42125,-1.08922 1.73798,-1.08922 1.51296,0 1.58862,0.0781 1.58862,1.64131 0,1.50967 -0.11855,1.65309 -1.47827,1.78847 -0.99133,0.0987 -1.56381,-0.0831 -1.73799,-0.55207 z m 7.26226,0 c -0.14285,-0.38458 -0.1925,-1.1894 -0.11036,-1.78849 0.12381,-0.90279 0.42126,-1.08922 1.73799,-1.08922 1.51297,0 1.58862,0.0781 1.58862,1.64131 0,1.50967 -0.11855,1.65309 -1.47828,1.78847 -0.99132,0.0987 -1.5638,-0.0831 -1.73797,-0.55207 z m 7.26225,0 c -0.14285,-0.38458 -0.1925,-1.1894 -0.11035,-1.78849 0.1238,-0.90279 0.42126,-1.08922 1.73799,-1.08922 1.51297,0 1.58861,0.0781 1.58861,1.64131 0,1.50967 -0.11855,1.65309 -1.47827,1.78847 -0.99132,0.0987 -1.56381,-0.0831 -1.73798,-0.55207 z m -14.52451,-7.50308 c -0.14284,-0.38459 -0.1925,-1.18941 -0.11034,-1.78849 0.1238,-0.9028 0.42125,-1.08923 1.73798,-1.08923 1.51296,0 1.58862,0.0781 1.58862,1.6413 0,1.50968 -0.11855,1.65311 -1.47827,1.7885 -0.99133,0.0987 -1.56381,-0.0831 -1.73799,-0.55208 z m 7.26226,0 c -0.14285,-0.38459 -0.1925,-1.18941 -0.11036,-1.78849 0.12381,-0.9028 0.42126,-1.08923 1.73799,-1.08923 1.51297,0 1.58862,0.0781 1.58862,1.6413 0,1.50968 -0.11855,1.65311 -1.47828,1.7885 -0.99132,0.0987 -1.5638,-0.0831 -1.73797,-0.55208 z m 7.26225,0 c -0.14285,-0.38459 -0.1925,-1.18941 -0.11035,-1.78849 0.1238,-0.9028 0.42126,-1.08923 1.73799,-1.08923 1.51297,0 1.58861,0.0781 1.58861,1.6413 0,1.50968 -0.11855,1.65311 -1.47827,1.7885 -0.99132,0.0987 -1.56381,-0.0831 -1.73798,-0.55208 z m -7.26225,-7.50309 c -0.14285,-0.3846 -0.1925,-1.18941 -0.11036,-1.78849 0.12381,-0.9028 0.42126,-1.08923 1.73799,-1.08923 1.51297,0 1.58862,0.0781 1.58862,1.6413 0,1.50968 -0.11855,1.65312 -1.47828,1.78849 -0.99132,0.0987 -1.5638,-0.0831 -1.73797,-0.55207 z m 7.26225,0 c -0.14285,-0.3846 -0.1925,-1.18941 -0.11035,-1.78849 0.1238,-0.9028 0.42126,-1.08923 1.73799,-1.08923 1.51297,0 1.58861,0.0781 1.58861,1.6413 0,1.50968 -0.11855,1.65312 -1.47827,1.78849 -0.99132,0.0987 -1.56381,-0.0831 -1.73798,-0.55207 z m 7.07433,-19.99413 v -5.62732 h -41.75797 -41.75795 v 5.62732 5.62731 h 41.75795 41.75797 z m 6.89832,-13.13041 1.19042,-3.75154 h -49.93592 c -39.75764,0 -49.89329,0.11947 -49.72681,0.58617 0.115,0.3224 0.66413,2.01059 1.22029,3.75154 l 1.0112,3.16538 h 47.52522 47.52521 z"
     id="path1138"
     inkscape:connector-curvature="0" /></svg>