<?xml version="1.0" encoding="UTF-8" standalone="no"?>
<!-- Generator: Adobe Illustrator 19.0.0, SVG Export Plug-In . SVG Version: 6.00 Build 0)  -->

<svg
   xmlns:dc="http://purl.org/dc/elements/1.1/"
   xmlns:cc="http://creativecommons.org/ns#"
   xmlns:rdf="http://www.w3.org/1999/02/22-rdf-syntax-ns#"
   xmlns:svg="http://www.w3.org/2000/svg"
   xmlns="http://www.w3.org/2000/svg"
   xmlns:sodipodi="http://sodipodi.sourceforge.net/DTD/sodipodi-0.dtd"
   xmlns:inkscape="http://www.inkscape.org/namespaces/inkscape"
   version="1.1"
   id="Layer_1"
   x="0px"
   y="0px"
   viewBox="0 0 512 512"
   style="enable-background:new 0 0 512 512;"
   xml:space="preserve"
   sodipodi:docname="Принтер31.svg"
   inkscape:version="0.92.2 (5c3e80d, 2017-08-06)"><metadata
     id="metadata5649"><rdf:RDF><cc:Work
         rdf:about=""><dc:format>image/svg+xml</dc:format><dc:type
           rdf:resource="http://purl.org/dc/dcmitype/StillImage" /><dc:title></dc:title></cc:Work></rdf:RDF></metadata><defs
     id="defs5647" /><sodipodi:namedview
     pagecolor="#ffffff"
     bordercolor="#666666"
     borderopacity="1"
     objecttolerance="10"
     gridtolerance="10"
     guidetolerance="10"
     inkscape:pageopacity="0"
     inkscape:pageshadow="2"
     inkscape:window-width="1280"
     inkscape:window-height="975"
     id="namedview5645"
     showgrid="false"
     inkscape:zoom="0.4609375"
     inkscape:cx="-117.15254"
     inkscape:cy="256"
     inkscape:window-x="-4"
     inkscape:window-y="-4"
     inkscape:window-maximized="1"
     inkscape:current-layer="Layer_1" /><g
     id="g5594"
     style="fill:#7f7f7f;fill-opacity:1"><g
       id="g5592"
       style="fill:#7f7f7f;fill-opacity:1"><rect
         x="125.585"
         y="188.377"
         width="144.906"
         height="19.321"
         id="rect5590"
         style="fill:#7f7f7f;fill-opacity:1" /></g></g><g
     id="g5600"
     style="fill:#7f7f7f;fill-opacity:1"><g
       id="g5598"
       style="fill:#7f7f7f;fill-opacity:1"><rect
         x="125.585"
         y="256"
         width="193.208"
         height="19.321"
         id="rect5596"
         style="fill:#7f7f7f;fill-opacity:1" /></g></g><g
     id="g5606"
     style="fill:#7f7f7f;fill-opacity:1"><g
       id="g5604"
       style="fill:#7f7f7f;fill-opacity:1"><rect
         x="125.585"
         y="323.623"
         width="193.208"
         height="19.321"
         id="rect5602"
         style="fill:#7f7f7f;fill-opacity:1" /></g></g><g
     id="g5612"
     style="fill:#7f7f7f;fill-opacity:1"><g
       id="g5610"
       style="fill:#7f7f7f;fill-opacity:1"><path
         d="M464.887,33.811H49.528C22.882,33.811,0,54.297,0,80.958v173.783c0,26.66,21.67,48.354,48.302,48.354    c10.915,0,21.736-3.774,28.981-9.899v174.125c0,5.335,5.533,10.868,10.868,10.868h338.113c5.335,0,8.453-5.533,8.453-10.868    V293.196c9.66,6.125,18.066,9.899,28.981,9.899c26.632,0,48.302-21.693,48.302-48.354V80.958    C512,54.297,491.533,33.811,464.887,33.811z M415.396,254.83v204.038H96.604V254.83v-96.641c0-5.326,5.571-8.453,10.939-8.453    h299.33c5.368,0,8.524,3.127,8.524,8.453V254.83z M492.679,254.741c0,16.009-13,29.033-28.981,29.033    s-28.981-12.986-28.981-28.943v-96.641v-8.453h19.321v-19.321h-47.165h-299.33h-49.58v19.321h19.321v8.453v96.641    c0,15.958-13,28.943-28.981,28.943c-15.981,0-28.981-13.024-28.981-29.033V80.958c0-16.009,14.217-27.826,30.208-27.826h415.359    c15.991,0,27.792,11.816,27.792,27.826V254.741z"
         id="path5608"
         style="fill:#7f7f7f;fill-opacity:1" /></g></g><g
     id="g5614" /><g
     id="g5616" /><g
     id="g5618" /><g
     id="g5620" /><g
     id="g5622" /><g
     id="g5624" /><g
     id="g5626" /><g
     id="g5628" /><g
     id="g5630" /><g
     id="g5632" /><g
     id="g5634" /><g
     id="g5636" /><g
     id="g5638" /><g
     id="g5640" /><g
     id="g5642" /></svg>