<?xml version="1.0" encoding="UTF-8" standalone="no"?>
<svg
   viewBox="0 0 517.85398 409.44279"
   xml:space="preserve"
   version="1.1"
   id="svg8"
   sodipodi:docname="car.svg"
   width="517.854"
   height="409.44281"
   inkscape:version="1.2 (dc2aedaf03, 2022-05-15)"
   xmlns:inkscape="http://www.inkscape.org/namespaces/inkscape"
   xmlns:sodipodi="http://sodipodi.sourceforge.net/DTD/sodipodi-0.dtd"
   xmlns="http://www.w3.org/2000/svg"
   xmlns:svg="http://www.w3.org/2000/svg"><defs
     id="defs12" /><sodipodi:namedview
     id="namedview10"
     pagecolor="#ffffff"
     bordercolor="#000000"
     borderopacity="0.25"
     inkscape:showpageshadow="2"
     inkscape:pageopacity="0.0"
     inkscape:pagecheckerboard="0"
     inkscape:deskcolor="#d1d1d1"
     showgrid="false"
     inkscape:zoom="1.172145"
     inkscape:cx="258.927"
     inkscape:cy="204.75282"
     inkscape:window-width="1280"
     inkscape:window-height="953"
     inkscape:window-x="-8"
     inkscape:window-y="-8"
     inkscape:window-maximized="1"
     inkscape:current-layer="svg8"
     showguides="true"><sodipodi:guide
       position="154.97153,276.56176"
       orientation="1,0"
       id="guide3220"
       inkscape:locked="false" /><sodipodi:guide
       position="104.83086,242.56809"
       orientation="1,0"
       id="guide3222"
       inkscape:locked="false" /></sodipodi:namedview><g
     id="g443"
     style="stroke:#000000;stroke-width:5;stroke-dasharray:none"
     transform="translate(2,2.0053925)"><path
       id="path1674"
       style="fill:none;fill-opacity:1;stroke:#000080;stroke-width:5;stroke-dasharray:none;stroke-opacity:1"
       d="m 244.70734,145.9956 v 102.39999 c 0,23.893 18.773,42.667 42.667,42.667 23.893,0 42.667,-18.773 42.667,-42.667 V 145.9956 c 21.333,-16.213 34.133,-40.96 34.133,-68.266997 0,-32.427 -17.92,-61.440006 -46.933,-75.947006 -2.56,-1.707 -5.973,-1.707 -8.533,0 -2.56,1.707 -4.267,5.12 -4.267,7.68 v 68.267006 h -34.133 V 9.462597 c 0,-2.56 -1.707,-5.973 -3.413,-7.68 -2.56,-0.853 -5.973,-1.707 -8.533,0 -29.867,14.507 -47.787,43.520006 -47.787,75.947006 -0.002,27.305997 12.798,52.052997 34.132,68.265997 z m -24.89934,2.08581 c -12.8,4.267 -23.893,14.507 -32.427,24.747 l -11.947,13.653 c -22.187,24.749 -52.054,40.962 -85.334,45.229 l -52.053,6.827 c -21.334,2.56 -37.547,21.333 -37.547,42.666 v 38.4 c 0,23.893 18.773,42.667 42.667,42.667 H 78.03 c 4.095,24.134 25.217,42.667 50.47,42.667 25.253,0 46.375,-18.533 50.47,-42.667 h 172.127 c 4.095,24.134 25.217,42.667 50.47,42.667 25.253,0 46.375,-18.533 50.47,-42.667 h 17.797 c 23.893,0 42.667,-18.773 43.52,-43.52 v -59.733 c -0.001,-22.187 -17.921,-40.96 -40.107,-42.667 -22.187,-1.707 -40.107,-11.947 -50.347,-28.16 l -2.56,-4.267 c -12.8,-21.333 -35.84,-34.133 -60.587,-35.84 M 78.266019,363.32997 C 76.982777,328.1236 103.37229,309.57417 128.5,309.82543 c 24.20189,-0.93137 50.4313,19.05247 50.4313,51.51785 m 172.11098,0.99313 c -1.40806,-33.87391 22.30305,-52.82395 49.16653,-53.05425 41.48119,1.2134 53.25765,29.62192 52.15454,53.05425" /></g></svg>
