<?xml version="1.0" encoding="UTF-8" standalone="no"?>
<!-- Generator: Adobe Illustrator 17.1.0, SVG Export Plug-In . SVG Version: 6.00 Build 0)  -->

<svg
   version="1.1"
   id="Capa_1"
   x="0px"
   y="0px"
   viewBox="0 0 416.034 339.99999"
   xml:space="preserve"
   sodipodi:docname="cartridge.svg"
   inkscape:version="1.2 (dc2aedaf03, 2022-05-15)"
   width="416.034"
   height="340"
   xmlns:inkscape="http://www.inkscape.org/namespaces/inkscape"
   xmlns:sodipodi="http://sodipodi.sourceforge.net/DTD/sodipodi-0.dtd"
   xmlns="http://www.w3.org/2000/svg"
   xmlns:svg="http://www.w3.org/2000/svg"
   xmlns:rdf="http://www.w3.org/1999/02/22-rdf-syntax-ns#"
   xmlns:cc="http://creativecommons.org/ns#"
   xmlns:dc="http://purl.org/dc/elements/1.1/"><metadata
     id="metadata51"><rdf:RDF><cc:Work
         rdf:about=""><dc:format>image/svg+xml</dc:format><dc:type
           rdf:resource="http://purl.org/dc/dcmitype/StillImage" /></cc:Work></rdf:RDF></metadata><defs
     id="defs49" /><sodipodi:namedview
     pagecolor="#ffffff"
     bordercolor="#666666"
     borderopacity="1"
     objecttolerance="10"
     gridtolerance="10"
     guidetolerance="10"
     inkscape:pageopacity="0"
     inkscape:pageshadow="2"
     inkscape:window-width="1280"
     inkscape:window-height="953"
     id="namedview47"
     showgrid="false"
     inkscape:zoom="1.3883753"
     inkscape:cx="238.40816"
     inkscape:cy="110.92102"
     inkscape:window-x="-8"
     inkscape:window-y="-8"
     inkscape:window-maximized="1"
     inkscape:current-layer="Capa_1"
     inkscape:showpageshadow="2"
     inkscape:pagecheckerboard="0"
     inkscape:deskcolor="#d1d1d1"
     showguides="true"><sodipodi:guide
       position="-16.084023,308.70124"
       orientation="0,-1"
       id="guide961"
       inkscape:locked="false" /><sodipodi:guide
       position="20.973067,271.44564"
       orientation="1,0"
       id="guide963"
       inkscape:locked="false" /><sodipodi:guide
       position="395.56354,259.34403"
       orientation="1,0"
       id="guide5321"
       inkscape:locked="false" /><sodipodi:guide
       position="362.82491,199.72118"
       orientation="0,-1"
       id="guide5358"
       inkscape:locked="false" /><sodipodi:guide
       position="181.04167,184.9549"
       orientation="0,-1"
       id="guide5420"
       inkscape:locked="false" /><sodipodi:guide
       position="176.13442,180.3664"
       orientation="1,0"
       id="guide5422"
       inkscape:locked="false" /><sodipodi:guide
       position="195.01233,171.13721"
       orientation="1,0"
       id="guide5424"
       inkscape:locked="false" /><sodipodi:guide
       position="163.1616,136.19776"
       orientation="0,-1"
       id="guide5631"
       inkscape:locked="false" /></sodipodi:namedview><g
     id="g16"
     transform="translate(-10.016048,-92.097631)" /><g
     id="g18"
     transform="translate(-10.016048,-92.097631)" /><g
     id="g20"
     transform="translate(-10.016048,-92.097631)" /><g
     id="g22"
     transform="translate(-10.016048,-92.097631)" /><g
     id="g24"
     transform="translate(-10.016048,-92.097631)" /><g
     id="g26"
     transform="translate(-10.016048,-92.097631)" /><g
     id="g28"
     transform="translate(-10.016048,-92.097631)" /><g
     id="g30"
     transform="translate(-10.016048,-92.097631)" /><g
     id="g32"
     transform="translate(-10.016048,-92.097631)" /><g
     id="g34"
     transform="translate(-10.016048,-92.097631)" /><g
     id="g36"
     transform="translate(-10.016048,-92.097631)" /><g
     id="g38"
     transform="translate(-10.016048,-92.097631)" /><g
     id="g40"
     transform="translate(-10.016048,-92.097631)" /><g
     id="g42"
     transform="translate(-10.016048,-92.097631)" /><g
     id="g44"
     transform="translate(-10.016048,-92.097631)" /><g
     id="g6"
     style="fill:none;fill-opacity:1;stroke:#000080;stroke-width:1.49245;stroke-miterlimit:4;stroke-dasharray:none;stroke-opacity:1"
     transform="matrix(0.67325741,0,0,0.66683202,2,-63.771643)" /><g
     id="g5327"
     style="fill:none;fill-opacity:1;stroke:#000080;stroke-width:1.49245;stroke-miterlimit:4;stroke-dasharray:none;stroke-opacity:1"
     transform="matrix(0.67325741,0,0,0.66683202,2,-63.771643)" /><path
     id="path429"
     style="fill:none;fill-opacity:1;stroke:#000080;stroke-width:4;stroke-dasharray:none;stroke-opacity:1"
     d="m 176.13442,194.17299 18.87791,-0.33867 m -169.451943,-23.83333 84.902053,-0.002 M 384.78723,88.099688 H 31.246302 c -5.662768,0 -10.273235,4.562465 -10.273235,10.17519 V 241.72711 c 0,5.61273 4.61114,10.17519 10.273235,10.17519 H 384.78723 c 5.66277,0 10.27391,-4.56245 10.27391,-10.17518 V 98.274878 C 395.06047,92.662153 390.45,88.099688 384.78723,88.099688 Z M 219.22821,171.55722 c 0,0.52868 0.42857,0.95725 0.95725,0.95725 0.52867,0 0.95724,-0.42858 0.95724,-0.95725 0,-0.52867 -0.42857,-0.95724 -0.95724,-0.95724 -0.52867,0 -0.95725,0.42857 -0.95725,0.95724 z m 0,-6.22897 c 0,0.52867 0.42858,0.95724 0.95725,0.95724 0.52867,0 0.95724,-0.42857 0.95724,-0.95724 0,-0.52867 -0.42857,-0.95725 -0.95724,-0.95725 -0.52868,0 -0.95725,0.42857 -0.95725,0.95725 z m 6.22899,6.22897 c 0,0.52867 0.42857,0.95725 0.95724,0.95725 0.52868,0 0.95725,-0.42857 0.95725,-0.95725 0,-0.52867 -0.42858,-0.95724 -0.95725,-0.95724 -0.52867,0 -0.95724,0.42857 -0.95724,0.95724 z m 0,-6.22897 c 0,0.52867 0.42857,0.95724 0.95724,0.95724 0.52867,0 0.95725,-0.42857 0.95725,-0.95724 0,-0.52868 -0.42857,-0.95725 -0.95725,-0.95725 -0.52867,0 -0.95724,0.42858 -0.95724,0.95725 z m 0,-6.22899 c 0,0.52867 0.42857,0.95725 0.95724,0.95725 0.52868,0 0.95725,-0.42857 0.95725,-0.95725 0,-0.52867 -0.42858,-0.95724 -0.95725,-0.95724 -0.52867,0 -0.95724,0.42857 -0.95724,0.95724 z m 6.22897,12.45796 c 0,0.52868 0.42857,0.95725 0.95725,0.95725 0.52867,0 0.95724,-0.42858 0.95724,-0.95725 0,-0.52867 -0.42857,-0.95724 -0.95724,-0.95724 -0.52867,0 -0.95725,0.42857 -0.95725,0.95724 z m 0,-6.22897 c 0,0.52867 0.42858,0.95724 0.95725,0.95724 0.52867,0 0.95724,-0.42857 0.95724,-0.95724 0,-0.52867 -0.42857,-0.95725 -0.95724,-0.95725 -0.52868,0 -0.95725,0.42857 -0.95725,0.95725 z m 0,-6.22899 c 0,0.52868 0.42857,0.95725 0.95725,0.95725 0.52867,0 0.95724,-0.42858 0.95724,-0.95725 0,-0.52867 -0.42857,-0.95724 -0.95724,-0.95724 -0.52867,0 -0.95725,0.42857 -0.95725,0.95724 z m 0,-6.22897 c 0,0.52867 0.42858,0.95724 0.95725,0.95724 0.52867,0 0.95724,-0.42857 0.95724,-0.95724 0,-0.52867 -0.42857,-0.95725 -0.95724,-0.95725 -0.52868,0 -0.95725,0.42857 -0.95725,0.95725 z m 6.22899,18.68693 c 0,0.52868 0.42857,0.95725 0.95725,0.95725 0.52867,0 0.95724,-0.42858 0.95724,-0.95725 0,-0.52867 -0.42857,-0.95724 -0.95724,-0.95724 -0.52867,0 -0.95725,0.42857 -0.95725,0.95724 z m 0,-6.22897 c 0,0.52867 0.42858,0.95724 0.95725,0.95724 0.52867,0 0.95724,-0.42857 0.95724,-0.95724 0,-0.52867 -0.42857,-0.95725 -0.95724,-0.95725 -0.52868,0 -0.95725,0.42857 -0.95725,0.95725 z m 0,-6.22899 c 0,0.52868 0.42857,0.95725 0.95725,0.95725 0.52867,0 0.95724,-0.42858 0.95724,-0.95725 0,-0.52867 -0.42857,-0.95724 -0.95724,-0.95724 -0.52867,0 -0.95725,0.42857 -0.95725,0.95724 z m 0,-6.22897 c 0,0.52867 0.42858,0.95724 0.95725,0.95724 0.52867,0 0.95724,-0.42857 0.95724,-0.95724 0,-0.52867 -0.42857,-0.95725 -0.95724,-0.95725 -0.52868,0 -0.95725,0.42857 -0.95725,0.95725 z m 6.22897,18.68693 c 0,0.52868 0.42857,0.95725 0.95725,0.95725 0.52867,0 0.95724,-0.42858 0.95724,-0.95725 0,-0.52867 -0.42857,-0.95724 -0.95724,-0.95724 -0.52867,0 -0.95725,0.42857 -0.95725,0.95724 z m 0,-6.22897 c 0,0.52867 0.42858,0.95724 0.95725,0.95724 0.52867,0 0.95724,-0.42857 0.95724,-0.95724 0,-0.52867 -0.42857,-0.95725 -0.95724,-0.95725 -0.52868,0 -0.95725,0.42857 -0.95725,0.95725 z m 0,-6.22899 c 0,0.52868 0.42857,0.95725 0.95725,0.95725 0.52867,0 0.95724,-0.42858 0.95724,-0.95725 0,-0.52867 -0.42857,-0.95724 -0.95724,-0.95724 -0.52867,0 -0.95725,0.42857 -0.95725,0.95724 z m 0,-6.22897 c 0,0.52867 0.42858,0.95724 0.95725,0.95724 0.52867,0 0.95724,-0.42857 0.95724,-0.95724 0,-0.52867 -0.42857,-0.95725 -0.95724,-0.95725 -0.52868,0 -0.95725,0.42857 -0.95725,0.95725 z m 0,0 c 0,0.52867 0.42858,0.95724 0.95725,0.95724 0.52867,0 0.95724,-0.42857 0.95724,-0.95724 0,-0.52867 -0.42857,-0.95725 -0.95724,-0.95725 -0.52868,0 -0.95725,0.42857 -0.95725,0.95725 z m -75.40454,83.8014 c -1.66629,-2.6745 -1.45175,-8.28977 2.6445,-13.75769 1.76401,-2.92479 2.23059,-3.20302 3.33926,-3.20302 1.09655,0 1.57553,0.37076 3.2119,3.04769 4.25477,6.96038 4.87598,10.76409 2.78815,13.95125 -1.84677,2.81917 -10.48003,2.85864 -11.98381,-0.0382 z m -0.95795,-26.02756 c -0.17166,-0.17735 -0.3121,-18.74138 -0.3121,-41.2534 v -40.93096 l -2.60987,-0.14063 -2.60987,-0.14064 -1.90892,-5.62732 c -1.10145,-3.24695 -1.86944,-6.32159 -1.81557,-7.26862 l 0.0934,-1.64131 h 54.23995 54.23996 l 0.12566,1.17237 c 0.0691,0.64479 -0.76503,3.91566 -1.85365,7.26862 l -1.9793,6.09626 -2.56823,0.14053 -2.56823,0.14053 -0.11703,27.99604 -0.11704,27.99607 -28.01817,0.1208 -28.01818,0.12081 -0.12306,9.25804 -0.12305,9.25806 -8.03766,0.12797 -8.03766,0.128 -0.13238,3.62355 -0.13237,3.62356 -8.65225,0.12705 c -4.75874,0.0699 -8.7927,-0.0181 -8.96434,-0.19538 z m 8.70337,-25.87852 h 18.52732 m 59.60426,-56.35264 h -41.75797 -41.75795 m 5.03375,65.76002 18.87791,-0.33867 M 390.95158,169.99933 H 305.57042 M 265.63211,92.170034 c 25.01354,18.197836 39.93831,47.233706 39.93831,77.829296 0,30.59558 -14.92477,59.63612 -39.93831,77.8333 m -115.23069,0 c -25.01354,-18.19718 -39.93898,-47.23772 -39.93898,-77.8333 0,-30.59559 14.92477,-59.63146 39.93898,-77.829296 M 395.56354,61.019278 H 20.973067 M 411.97875,31.720375 H 4.054782 C 2.920343,31.720375 2,32.631934 2,33.755546 V 268.66046 c 0,1.12362 0.920343,2.03517 2.054782,2.03517 h 26.402462 v 35.54881 c 0,1.12362 0.920343,2.03518 2.054782,2.03518 H 383.51747 c 1.13444,0 2.05478,-0.91156 2.05478,-2.03518 v -35.54881 h 26.40717 c 1.13444,0 2.05479,-0.91156 2.05479,-2.03517 V 33.755546 c -6.8e-4,-1.123612 -0.92102,-2.035171 -2.05546,-2.035171 z"
     sodipodi:nodetypes="ccccssssssscsssssssssssssssssssssssssssssssssssssssssssssssssssssssssssssssssssssssssssssssssssssssssssscssssssscccsccccsscccccccccccccsssccccccccccsccscccssssscsssscsscs" /></svg>
