<?xml version="1.0" encoding="UTF-8" standalone="no"?>
<!-- Generator: Adobe Illustrator 16.0.0, SVG Export Plug-In . SVG Version: 6.00 Build 0)  -->

<svg
   version="1.1"
   id="Capa_1"
   x="0px"
   y="0px"
   width="616.99902"
   height="617.01099"
   viewBox="0 0 616.99901 617.01098"
   xml:space="preserve"
   sodipodi:docname="computer.svg"
   inkscape:version="1.2 (dc2aedaf03, 2022-05-15)"
   xmlns:inkscape="http://www.inkscape.org/namespaces/inkscape"
   xmlns:sodipodi="http://sodipodi.sourceforge.net/DTD/sodipodi-0.dtd"
   xmlns="http://www.w3.org/2000/svg"
   xmlns:svg="http://www.w3.org/2000/svg"
   xmlns:rdf="http://www.w3.org/1999/02/22-rdf-syntax-ns#"
   xmlns:cc="http://creativecommons.org/ns#"
   xmlns:dc="http://purl.org/dc/elements/1.1/"><metadata
     id="metadata4984"><rdf:RDF><cc:Work
         rdf:about=""><dc:format>image/svg+xml</dc:format><dc:type
           rdf:resource="http://purl.org/dc/dcmitype/StillImage" /><dc:title /></cc:Work></rdf:RDF></metadata><defs
     id="defs4982" /><sodipodi:namedview
     pagecolor="#ffffff"
     bordercolor="#666666"
     borderopacity="1"
     objecttolerance="10"
     gridtolerance="10"
     guidetolerance="10"
     inkscape:pageopacity="0"
     inkscape:pageshadow="2"
     inkscape:window-width="1280"
     inkscape:window-height="953"
     id="namedview4980"
     showgrid="false"
     inkscape:zoom="0.98379414"
     inkscape:cx="308.4995"
     inkscape:cy="307.99126"
     inkscape:window-x="-8"
     inkscape:window-y="-8"
     inkscape:window-maximized="1"
     inkscape:current-layer="Capa_1"
     inkscape:showpageshadow="2"
     inkscape:pagecheckerboard="0"
     inkscape:deskcolor="#d1d1d1" /><path
     d="M 349.3,2.5 H 22.9 C 11.629,2.5 2.5,11.629 2.5,22.89 V 430.9 c 0,11.261 9.129,20.391 20.4,20.391 h 265.2 m -183.6,163.22 h 244.8 m -61.2,-9.9e-4 V 451.29 m 0,0 h 61.2 M 563.5,206.52 H 430.9 c -5.631,0 -10.2,4.549 -10.2,10.18 0,5.661 4.569,10.21 10.2,10.21 h 132.6 c 5.631,0 10.2,-4.56 10.2,-10.21 0,-5.62 -4.569,-10.18 -10.2,-10.18 z m -66.3,224.379 c -8.446,0 -15.3,6.854 -15.3,15.32 0,8.415 6.854,15.28 15.3,15.28 8.445,0 15.3,-6.865 15.3,-15.28 0,-8.465 -6.844,-15.32 -15.3,-15.32 z M 594.099,2.5 h -193.8 C 389.038,2.5 379.9,11.629 379.9,22.89 v 571.23 c 0,11.24 9.129,20.39 20.399,20.39 h 193.8 c 11.271,0 20.4,-9.149 20.4,-20.39 V 22.89 C 614.5,11.629 605.371,2.5 594.099,2.5 Z M 563.5,165.73 H 430.9 c -5.631,0 -10.2,4.56 -10.2,10.18 0,5.641 4.569,10.21 10.2,10.21 h 132.6 c 5.631,0 10.2,-4.569 10.2,-10.21 0,-5.631 -4.569,-10.18 -10.2,-10.18 z m 0,-122.43 H 430.9 c -5.631,0 -10.2,4.569 -10.2,10.21 v 61.19 c 0,5.641 4.569,10.21 10.2,10.21 h 132.6 c 5.631,0 10.2,-4.57 10.2,-10.21 V 53.51 c 0,-5.641 -4.569,-10.21 -10.2,-10.21 z m -20.401,61.2 h -91.8 c -10.098,0.316 -10.2,-1.071 -10.2,-10.2 V 73.92 c -0.315,-10.118 0.429,-9.904 10.2,-10.21 h 91.8 c 9.456,0.306 9.884,0.745 10.2,10.21 v 20.39 c 0.317,9.761 -0.743,9.874 -10.2,10.19 z"
     id="path4942"
     style="fill:none;fill-opacity:1;stroke:#000080;stroke-width:5;stroke-dasharray:none;stroke-opacity:1"
     sodipodi:nodetypes="csssscccccccssssssssssssssssssscsssssssssssssssssccscccccc" /><g
     id="g4949"
     transform="translate(2.495,2.5)" /><g
     id="g4951"
     transform="translate(2.495,2.5)" /><g
     id="g4953"
     transform="translate(2.495,2.5)" /><g
     id="g4955"
     transform="translate(2.495,2.5)" /><g
     id="g4957"
     transform="translate(2.495,2.5)" /><g
     id="g4959"
     transform="translate(2.495,2.5)" /><g
     id="g4961"
     transform="translate(2.495,2.5)" /><g
     id="g4963"
     transform="translate(2.495,2.5)" /><g
     id="g4965"
     transform="translate(2.495,2.5)" /><g
     id="g4967"
     transform="translate(2.495,2.5)" /><g
     id="g4969"
     transform="translate(2.495,2.5)" /><g
     id="g4971"
     transform="translate(2.495,2.5)" /><g
     id="g4973"
     transform="translate(2.495,2.5)" /><g
     id="g4975"
     transform="translate(2.495,2.5)" /><g
     id="g4977"
     transform="translate(2.495,2.5)" /></svg>
