<?xml version="1.0" encoding="UTF-8" standalone="no"?>
<!-- Generator: Adobe Illustrator 17.1.0, SVG Export Plug-In . SVG Version: 6.00 Build 0)  -->

<svg
   version="1.1"
   id="Capa_1"
   x="0px"
   y="0px"
   viewBox="0 0 447 314.759"
   xml:space="preserve"
   sodipodi:docname="ink.svg"
   inkscape:version="1.2 (dc2aedaf03, 2022-05-15)"
   width="447"
   height="314.759"
   xmlns:inkscape="http://www.inkscape.org/namespaces/inkscape"
   xmlns:sodipodi="http://sodipodi.sourceforge.net/DTD/sodipodi-0.dtd"
   xmlns="http://www.w3.org/2000/svg"
   xmlns:svg="http://www.w3.org/2000/svg"
   xmlns:rdf="http://www.w3.org/1999/02/22-rdf-syntax-ns#"
   xmlns:cc="http://creativecommons.org/ns#"
   xmlns:dc="http://purl.org/dc/elements/1.1/"><metadata
     id="metadata4353"><rdf:RDF><cc:Work
         rdf:about=""><dc:format>image/svg+xml</dc:format><dc:type
           rdf:resource="http://purl.org/dc/dcmitype/StillImage" /><dc:title /></cc:Work></rdf:RDF></metadata><defs
     id="defs4351" /><sodipodi:namedview
     pagecolor="#ffffff"
     bordercolor="#666666"
     borderopacity="1"
     objecttolerance="10"
     gridtolerance="10"
     guidetolerance="10"
     inkscape:pageopacity="0"
     inkscape:pageshadow="2"
     inkscape:window-width="1280"
     inkscape:window-height="953"
     id="namedview4349"
     showgrid="false"
     inkscape:zoom="1.3579418"
     inkscape:cx="223.5"
     inkscape:cy="157.59143"
     inkscape:window-x="-8"
     inkscape:window-y="-8"
     inkscape:window-maximized="1"
     inkscape:current-layer="Capa_1"
     inkscape:showpageshadow="2"
     inkscape:pagecheckerboard="0"
     inkscape:deskcolor="#d1d1d1" /><g
     id="g4318"
     transform="translate(2.5,-63.62)" /><g
     id="g4320"
     transform="translate(2.5,-63.62)" /><g
     id="g4322"
     transform="translate(2.5,-63.62)" /><g
     id="g4324"
     transform="translate(2.5,-63.62)" /><g
     id="g4326"
     transform="translate(2.5,-63.62)" /><g
     id="g4328"
     transform="translate(2.5,-63.62)" /><g
     id="g4330"
     transform="translate(2.5,-63.62)" /><g
     id="g4332"
     transform="translate(2.5,-63.62)" /><g
     id="g4334"
     transform="translate(2.5,-63.62)" /><g
     id="g4336"
     transform="translate(2.5,-63.62)" /><g
     id="g4338"
     transform="translate(2.5,-63.62)" /><g
     id="g4340"
     transform="translate(2.5,-63.62)" /><g
     id="g4342"
     transform="translate(2.5,-63.62)" /><g
     id="g4344"
     transform="translate(2.5,-63.62)" /><g
     id="g4346"
     transform="translate(2.5,-63.62)" /><path
     id="path1022"
     style="fill:none;fill-opacity:1;stroke:#000080;stroke-width:5;stroke-dasharray:none"
     d="m 170.96115,87.781 c 22.111,-43.255 44.593,-80.127 44.818,-80.494 1.816,-2.973 5.049,-4.786 8.533,-4.786 3.484,0 6.716,1.813 8.533,4.786 3.675,6.013 90.002,147.952 90.002,206.437 0,54.333 -44.203,98.535 -98.535,98.535 -13.297,0 -26.203,-2.606 -38.357,-7.748 m 91.892,-90.787 c 0,29.52 -24.016,53.535 -53.535,53.535 M 154.571,213.724 c 0,29.52 -24.016,53.535 -53.536,53.535 m 0,45 C 46.703,312.259 2.5,268.057 2.5,213.724 2.5,155.239 88.827,13.3 92.502,7.286 94.318,4.313 97.551,2.5 101.035,2.5 c 3.484,0 6.716,1.813 8.533,4.786 3.675,6.014 90.003,147.953 90.003,206.438 0,54.333 -44.203,98.535 -98.536,98.535 z M 292.614,87.781 c 22.111,-43.255 44.593,-80.127 44.818,-80.494 1.816,-2.973 5.049,-4.786 8.533,-4.786 3.484,0 6.716,1.813 8.533,4.786 3.675,6.013 90.002,147.952 90.002,206.437 0,54.333 -44.203,98.535 -98.535,98.535 -13.297,0 -26.203,-2.606 -38.357,-7.748 M 399.5,213.724 c 0,29.52 -24.016,53.535 -53.535,53.535" /></svg>
