<?xml version="1.0" encoding="UTF-8" standalone="no"?>
<!-- Generator: Adobe Illustrator 19.0.0, SVG Export Plug-In . SVG Version: 6.00 Build 0)  -->

<svg
   xmlns:dc="http://purl.org/dc/elements/1.1/"
   xmlns:cc="http://creativecommons.org/ns#"
   xmlns:rdf="http://www.w3.org/1999/02/22-rdf-syntax-ns#"
   xmlns:svg="http://www.w3.org/2000/svg"
   xmlns="http://www.w3.org/2000/svg"
   xmlns:sodipodi="http://sodipodi.sourceforge.net/DTD/sodipodi-0.dtd"
   xmlns:inkscape="http://www.inkscape.org/namespaces/inkscape"
   version="1.1"
   id="Layer_1"
   x="0px"
   y="0px"
   viewBox="0 0 512 512"
   style="enable-background:new 0 0 512 512;"
   xml:space="preserve"
   sodipodi:docname="Принтер41.svg"
   inkscape:version="0.92.2 (5c3e80d, 2017-08-06)"><metadata
     id="metadata3071"><rdf:RDF><cc:Work
         rdf:about=""><dc:format>image/svg+xml</dc:format><dc:type
           rdf:resource="http://purl.org/dc/dcmitype/StillImage" /><dc:title></dc:title></cc:Work></rdf:RDF></metadata><defs
     id="defs3069" /><sodipodi:namedview
     pagecolor="#ffffff"
     bordercolor="#666666"
     borderopacity="1"
     objecttolerance="10"
     gridtolerance="10"
     guidetolerance="10"
     inkscape:pageopacity="0"
     inkscape:pageshadow="2"
     inkscape:window-width="1280"
     inkscape:window-height="975"
     id="namedview3067"
     showgrid="false"
     inkscape:zoom="0.4609375"
     inkscape:cx="-117.15254"
     inkscape:cy="256"
     inkscape:window-x="-4"
     inkscape:window-y="-4"
     inkscape:window-maximized="1"
     inkscape:current-layer="Layer_1" /><g
     id="g3016"
     style="fill:#7f7f7f;fill-opacity:1"><g
       id="g3014"
       style="fill:#7f7f7f;fill-opacity:1"><path
         d="M504.5,303.515c0,0,0.016,0,0.031,0l0.172-0.062c4.235-1.422,7.297-5.406,7.297-10.125    c0-5.891-4.781-10.656-10.656-10.656c-1.188,0-2.312,0.188-3.375,0.547v-0.016L448,299.859v-52.172l56.5-18.828    c0,0,0.016-0.016,0.031-0.016l0.172-0.062c4.234-1.422,7.297-5.406,7.297-10.109c0-5.906-4.781-10.672-10.656-10.672    c-1.188,0-2.312,0.203-3.375,0.547L448,225.203v-70.531h21.344V5.328H106.656C47.75,5.328,0,53.094,0,112v42.672h21.344V496    h21.312c0,5.891,4.781,10.672,10.688,10.672H96c5.891,0,10.656-4.781,10.656-10.672h256c0,5.891,4.781,10.672,10.688,10.672H416    c5.891,0,10.656-4.781,10.656-10.672H448v-98.984l56.5-18.828c0,0,0.016-0.016,0.031-0.016l0.172-0.062    c4.235-1.407,7.297-5.407,7.297-10.11c0-5.891-4.781-10.672-10.656-10.672c-1.188,0-2.312,0.203-3.375,0.562v-0.016L448,374.531    v-52.172L504.5,303.515z M106.656,26.672H448V48H50.219C65.828,34.203,85.656,26.672,106.656,26.672z M426.656,474.672h-384    V325.328H192c0,5.891,4.781,10.672,10.656,10.672h64c5.906,0,10.672-4.781,10.688-10.672h149.312V474.672z M426.656,304h-384    V154.672h148.641c0,5.891,4.781,10.656,10.672,10.656h64c5.891,0,10.656-4.766,10.656-10.656h150.031V304z M21.344,133.328V112    c0-15.219,3.953-29.828,11.391-42.672H448v64H21.344z"
         id="path3012"
         style="fill:#7f7f7f;fill-opacity:1" /></g></g><g
     id="g3022"
     style="fill:#7f7f7f;fill-opacity:1"><g
       id="g3020"
       style="fill:#7f7f7f;fill-opacity:1"><path
         d="M416,90.672c-5.891,0-10.656,4.766-10.656,10.656c0,5.906,4.766,10.672,10.656,10.672s10.656-4.766,10.656-10.672    C426.656,95.438,421.891,90.672,416,90.672z"
         id="path3018"
         style="fill:#7f7f7f;fill-opacity:1" /></g></g><g
     id="g3028"
     style="fill:#7f7f7f;fill-opacity:1"><g
       id="g3026"
       style="fill:#7f7f7f;fill-opacity:1"><path
         d="M373.344,90.672c-5.906,0-10.688,4.766-10.688,10.656c0,5.906,4.781,10.672,10.688,10.672    c5.875,0,10.656-4.766,10.656-10.672C384,95.438,379.219,90.672,373.344,90.672z"
         id="path3024"
         style="fill:#7f7f7f;fill-opacity:1" /></g></g><g
     id="g3034"
     style="fill:#7f7f7f;fill-opacity:1"><g
       id="g3032"
       style="fill:#7f7f7f;fill-opacity:1"><path
         d="M330.656,90.672c-5.875,0-10.656,4.766-10.656,10.656c0,5.906,4.781,10.672,10.656,10.672    c5.906,0,10.688-4.766,10.688-10.672C341.344,95.438,336.562,90.672,330.656,90.672z"
         id="path3030"
         style="fill:#7f7f7f;fill-opacity:1" /></g></g><g
     id="g3036" /><g
     id="g3038" /><g
     id="g3040" /><g
     id="g3042" /><g
     id="g3044" /><g
     id="g3046" /><g
     id="g3048" /><g
     id="g3050" /><g
     id="g3052" /><g
     id="g3054" /><g
     id="g3056" /><g
     id="g3058" /><g
     id="g3060" /><g
     id="g3062" /><g
     id="g3064" /></svg>