<?xml version="1.0" encoding="UTF-8" standalone="no"?>
<!-- Generator: Adobe Illustrator 19.0.0, SVG Export Plug-In . SVG Version: 6.00 Build 0)  -->

<svg
   version="1.1"
   id="Layer_1"
   x="0px"
   y="0px"
   viewBox="0 0 508.76776 506.34399"
   xml:space="preserve"
   sodipodi:docname="printer.svg"
   inkscape:version="1.2 (dc2aedaf03, 2022-05-15)"
   width="508.76776"
   height="506.34399"
   xmlns:inkscape="http://www.inkscape.org/namespaces/inkscape"
   xmlns:sodipodi="http://sodipodi.sourceforge.net/DTD/sodipodi-0.dtd"
   xmlns="http://www.w3.org/2000/svg"
   xmlns:svg="http://www.w3.org/2000/svg"
   xmlns:rdf="http://www.w3.org/1999/02/22-rdf-syntax-ns#"
   xmlns:cc="http://creativecommons.org/ns#"
   xmlns:dc="http://purl.org/dc/elements/1.1/"><metadata
     id="metadata3071"><rdf:RDF><cc:Work
         rdf:about=""><dc:format>image/svg+xml</dc:format><dc:type
           rdf:resource="http://purl.org/dc/dcmitype/StillImage" /><dc:title /></cc:Work></rdf:RDF></metadata><defs
     id="defs3069" /><sodipodi:namedview
     pagecolor="#ffffff"
     bordercolor="#666666"
     borderopacity="1"
     objecttolerance="10"
     gridtolerance="10"
     guidetolerance="10"
     inkscape:pageopacity="0"
     inkscape:pageshadow="2"
     inkscape:window-width="1280"
     inkscape:window-height="953"
     id="namedview3067"
     showgrid="false"
     inkscape:zoom="1.1855469"
     inkscape:cx="183.45963"
     inkscape:cy="253.04777"
     inkscape:window-x="-8"
     inkscape:window-y="-8"
     inkscape:window-maximized="1"
     inkscape:current-layer="Layer_1"
     inkscape:showpageshadow="2"
     inkscape:pagecheckerboard="0"
     inkscape:deskcolor="#d1d1d1" /><g
     id="g3022"
     style="fill:none;fill-opacity:1;stroke:#000080"
     transform="translate(2.5,-2.828)"><g
       id="g3020"
       style="fill:none;fill-opacity:1;stroke:#000080" /></g><g
     id="g3028"
     style="fill:#7f7f7f;fill-opacity:1;stroke:#000080"
     transform="translate(2.5,-2.828)"><g
       id="g3026"
       style="fill:#7f7f7f;fill-opacity:1;stroke:#000080" /></g><g
     id="g3034"
     style="fill:none;fill-opacity:1;stroke:#000080"
     transform="translate(2.5,-2.828)"><g
       id="g3032"
       style="fill:none;fill-opacity:1;stroke:#000080"><path
         id="path3030"
         style="fill:none;fill-opacity:1;stroke:#000080;stroke-width:5;stroke-dasharray:none"
         d="m 330.656,90.672 c -5.875,0 -10.656,4.766 -10.656,10.656 0,5.906 4.781,10.672 10.656,10.672 5.906,0 10.688,-4.766 10.688,-10.672 0,-5.89 -4.782,-10.656 -10.688,-10.656 z m 42.688,0 c -5.906,0 -10.688,4.766 -10.688,10.656 0,5.906 4.781,10.672 10.688,10.672 5.875,0 10.656,-4.766 10.656,-10.672 0,-5.89 -4.781,-10.656 -10.656,-10.656 z m 42.656,0 c -5.891,0 -10.656,4.766 -10.656,10.656 0,5.906 4.766,10.672 10.656,10.672 5.89,0 10.656,-4.766 10.656,-10.672 0,-5.89 -4.765,-10.656 -10.656,-10.656 z m 32,157.015 v -93.015 h 21.344 V 5.328 H 106.656 C 47.75,5.328 0,53.094 0,112 v 42.672 H 21.344 V 496 h 21.312 c 0,5.891 4.781,10.672 10.688,10.672 H 96 c 5.891,0 10.656,-4.781 10.656,-10.672 h 256 c 0,5.891 4.781,10.672 10.688,10.672 H 416 c 5.891,0 10.656,-4.781 10.656,-10.672 H 448 v -98.984 l 56.5,-18.828 c 0,0 0.016,-0.016 0.031,-0.016 l 0.172,-0.062 M 448,397.016 v -74.657 l 56.5,-18.844 h 0.031 l 0.172,-0.062 M 448,322.359 v -74.672 l 56.5,-18.828 c 0,0 0.016,-0.016 0.031,-0.016 l 0.172,-0.062 M 42.656,325.328 H 192 c 0,5.891 4.781,10.672 10.656,10.672 h 64 c 5.906,0 10.672,-4.781 10.688,-10.672 h 149.312 m -384,-170.656 h 148.641 c 0,5.891 4.781,10.656 10.672,10.656 h 64 c 5.891,0 10.656,-4.766 10.656,-10.656 H 426.656 M 32.735,69.328 H 448 m 0,64 H 21.344" /></g></g><g
     id="g3036"
     transform="translate(2.5,-2.828)" /><g
     id="g3038"
     transform="translate(2.5,-2.828)" /><g
     id="g3040"
     transform="translate(2.5,-2.828)" /><g
     id="g3042"
     transform="translate(2.5,-2.828)" /><g
     id="g3044"
     transform="translate(2.5,-2.828)" /><g
     id="g3046"
     transform="translate(2.5,-2.828)" /><g
     id="g3048"
     transform="translate(2.5,-2.828)" /><g
     id="g3050"
     transform="translate(2.5,-2.828)" /><g
     id="g3052"
     transform="translate(2.5,-2.828)" /><g
     id="g3054"
     transform="translate(2.5,-2.828)" /><g
     id="g3056"
     transform="translate(2.5,-2.828)" /><g
     id="g3058"
     transform="translate(2.5,-2.828)" /><g
     id="g3060"
     transform="translate(2.5,-2.828)" /><g
     id="g3062"
     transform="translate(2.5,-2.828)" /><g
     id="g3064"
     transform="translate(2.5,-2.828)" /></svg>
