<?xml version="1.0" encoding="UTF-8" standalone="no"?>
<!-- Generator: Adobe Illustrator 19.0.0, SVG Export Plug-In . SVG Version: 6.00 Build 0)  -->

<svg
   version="1.1"
   id="Layer_1"
   x="0px"
   y="0px"
   viewBox="0 0 517 449.37799"
   xml:space="preserve"
   sodipodi:docname="printer-ink.svg"
   inkscape:version="1.2 (dc2aedaf03, 2022-05-15)"
   width="517"
   height="449.37799"
   xmlns:inkscape="http://www.inkscape.org/namespaces/inkscape"
   xmlns:sodipodi="http://sodipodi.sourceforge.net/DTD/sodipodi-0.dtd"
   xmlns="http://www.w3.org/2000/svg"
   xmlns:svg="http://www.w3.org/2000/svg"
   xmlns:rdf="http://www.w3.org/1999/02/22-rdf-syntax-ns#"
   xmlns:cc="http://creativecommons.org/ns#"
   xmlns:dc="http://purl.org/dc/elements/1.1/"><metadata
     id="metadata5649"><rdf:RDF><cc:Work
         rdf:about=""><dc:format>image/svg+xml</dc:format><dc:type
           rdf:resource="http://purl.org/dc/dcmitype/StillImage" /><dc:title /></cc:Work></rdf:RDF></metadata><defs
     id="defs5647" /><sodipodi:namedview
     pagecolor="#ffffff"
     bordercolor="#666666"
     borderopacity="1"
     objecttolerance="10"
     gridtolerance="10"
     guidetolerance="10"
     inkscape:pageopacity="0"
     inkscape:pageshadow="2"
     inkscape:window-width="1280"
     inkscape:window-height="953"
     id="namedview5645"
     showgrid="false"
     inkscape:zoom="1.1740812"
     inkscape:cx="258.5"
     inkscape:cy="224.85667"
     inkscape:window-x="-8"
     inkscape:window-y="-8"
     inkscape:window-maximized="1"
     inkscape:current-layer="Layer_1"
     inkscape:showpageshadow="2"
     inkscape:pagecheckerboard="0"
     inkscape:deskcolor="#d1d1d1"
     showguides="true"><sodipodi:guide
       position="2.7393643,-30.694431"
       orientation="1,0"
       id="guide483"
       inkscape:locked="false" /><sodipodi:guide
       position="3.1236191,-30.810033"
       orientation="1,0"
       id="guide485"
       inkscape:locked="false" /></sodipodi:namedview><g
     id="g5614"
     transform="translate(2.5,-31.311)" /><g
     id="g5616"
     transform="translate(2.5,-31.311)" /><g
     id="g5618"
     transform="translate(2.5,-31.311)" /><g
     id="g5620"
     transform="translate(2.5,-31.311)" /><g
     id="g5622"
     transform="translate(2.5,-31.311)" /><g
     id="g5624"
     transform="translate(2.5,-31.311)" /><g
     id="g5626"
     transform="translate(2.5,-31.311)" /><g
     id="g5628"
     transform="translate(2.5,-31.311)" /><g
     id="g5630"
     transform="translate(2.5,-31.311)" /><g
     id="g5632"
     transform="translate(2.5,-31.311)" /><g
     id="g5634"
     transform="translate(2.5,-31.311)" /><g
     id="g5636"
     transform="translate(2.5,-31.311)" /><g
     id="g5638"
     transform="translate(2.5,-31.311)" /><g
     id="g5640"
     transform="translate(2.5,-31.311)" /><g
     id="g5642"
     transform="translate(2.5,-31.311)" /><path
     id="path1044"
     style="fill:none;fill-rule:evenodd;stroke:#000080;stroke-width:5"
     d="M 125.55452,311.63297 H 321.293 M 125.55452,244.00998 H 321.293 M 125.05452,184.90127 H 273.61999 M 467.387,2.5 H 52.028 C 25.382,2.5 2.5,22.986 2.5,49.647 V 223.43 c 0,26.66 21.67,48.354 48.302,48.354 10.915,0 21.736,-3.774 28.981,-9.899 V 436.01 c 0,5.335 5.533,10.868 10.868,10.868 h 338.113 c 5.335,0 8.453,-5.533 8.453,-10.868 V 261.885 c 9.66,6.125 18.066,9.899 28.981,9.899 26.632,0 48.302,-21.693 48.302,-48.354 V 49.647 C 514.5,22.986 494.033,2.5 467.387,2.5 Z m -29.24618,96.605 -0.92382,162.78 m -357.434,0 -2.609807,-162.78 m 379.364807,0 H 60.463" /></svg>
